<svg xmlns="http://www.w3.org/2000/svg" xmlns:xlink="http://www.w3.org/1999/xlink" viewBox="0 0 186.69 206.07"><defs><linearGradient id="a"><stop offset="0" stop-color="#fff"/><stop offset="1" stop-color="#fff" stop-opacity="0"/></linearGradient><linearGradient id="c" y2="511.97" spreadMethod="reflect" gradientUnits="userSpaceOnUse" x2="286.63" gradientTransform="translate(-30.649 -69.394) scale(1.1818)" y1="511.97" x1="269.97"><stop offset="0" stop-color="#c6c6c6"/><stop offset=".205" stop-color="#e3e3e3"/><stop offset="1" stop-color="#a5a5a8"/></linearGradient><linearGradient id="d" y2="527.34" gradientUnits="userSpaceOnUse" x2="286.63" y1="518.56" x1="282.36"><stop offset="0" stop-color="#e3e3e3"/><stop offset="1" stop-color="#a5a5a8"/></linearGradient><linearGradient id="e" y2="520.33" xlink:href="#a" spreadMethod="reflect" gradientUnits="userSpaceOnUse" x2="327.78" gradientTransform="translate(0 .25)" y1="522.61" x1="308.5"/><linearGradient id="f" y2="520.33" xlink:href="#a" spreadMethod="reflect" gradientUnits="userSpaceOnUse" x2="327.78" gradientTransform="translate(0 12)" y1="522.61" x1="308.5"/><linearGradient id="g" y2="520.33" xlink:href="#a" spreadMethod="reflect" gradientUnits="userSpaceOnUse" x2="327.78" gradientTransform="translate(0 22)" y1="522.61" x1="308.5"/><filter id="b" height="1.385" width="1.129" color-interpolation-filters="sRGB" y="-.193" x="-.064"><feGaussianBlur stdDeviation=".893"/></filter></defs><path d="M303.3 521.78c0 3.068-7.462 5.556-16.668 5.556-9.205 0-16.668-2.488-16.668-5.556s7.462-5.556 16.668-5.556c9.205 0 16.668 2.488 16.668 5.556z" transform="translate(-1329.131 -2421.57) scale(4.9626)" filter="url(#b)" fill="#2e3436"/><path d="M288.41 517.5v30.092h.125c-.08.241-.125.47-.125.719 0 3.626 8.809 6.562 19.688 6.562s19.688-2.936 19.688-6.562a2.21 2.21 0 00-.125-.719h.125V517.5h-39.375z" fill="url(#c)" transform="translate(-1200.43 -2144.49) scale(4.1992)"/><path d="M303.3 521.78c0 3.068-7.462 5.556-16.668 5.556-9.205 0-16.668-2.488-16.668-5.556s7.462-5.556 16.668-5.556c9.205 0 16.668 2.488 16.668 5.556z" transform="translate(-1329.131 -2561.865) scale(4.9626)" fill="url(#d)"/><path d="M10.535 119.257c.619 15.05 37.507 27.164 82.804 27.164 45.167 0 81.851-12.043 82.674-27.033-14.493 12.329-46.019 20.865-82.674 20.865-36.726 0-68.35-8.627-82.804-20.996z" fill="#565656"/><path d="M288.38 517.34c.147 3.584 8.932 6.469 19.719 6.469 10.756 0 19.492-2.868 19.688-6.438-.216.184-.44.355-.688.532-.009.011-.021.02-.03.03-2.293 2.778-9.904 4.813-18.97 4.813-9.122 0-16.786-2.07-19.03-4.875-.026-.018-.039-.044-.063-.062-.219-.16-.432-.303-.625-.469z" fill="url(#e)" transform="translate(-1200.43 -2144.49) scale(4.1992)"/><path d="M10.535 75.068c.619 15.05 37.507 27.164 82.804 27.164 45.167 0 81.851-12.042 82.674-27.033-14.493 12.329-46.019 20.865-82.674 20.865-36.726 0-68.35-8.627-82.804-20.996z" fill="#565656"/><path d="M288.38 529.09c.147 3.584 8.932 6.469 19.719 6.469 10.756 0 19.492-2.868 19.688-6.438-.05.043-.105.084-.156.125-1.242 3.227-9.51 5.72-19.531 5.72-10.113 0-18.468-2.512-19.594-5.782-.04-.032-.087-.06-.125-.094z" fill="url(#f)" transform="translate(-1200.43 -2146.687) scale(4.1992)"/><path d="M288.38 539.09c.147 3.584 8.932 6.469 19.719 6.469 10.756 0 19.492-2.868 19.688-6.438-.05.043-.105.084-.156.125-1.242 3.227-9.51 5.72-19.531 5.72-10.113 0-18.468-2.512-19.594-5.782-.04-.032-.087-.06-.125-.094z" fill="url(#g)" transform="translate(-1200.43 -2144.49) scale(4.1992)"/><path d="M11.04 164.818c4.727 13.731 39.812 24.276 82.278 24.276 42.08 0 76.8-10.464 82.015-24.014-14.766 12.043-45.893 20.34-82.015 20.34-36.314 0-67.607-8.456-82.279-20.602z" fill="#565656"/></svg>